<svg width="16" height="16" viewBox="0 0 16 16" fill="none" xmlns="http://www.w3.org/2000/svg">
<path fill-rule="evenodd" clip-rule="evenodd" d="M4 1C4 0.447715 4.44772 0 5 0C5.55228 0 6 0.447715 6 1V2.00003H9V3.00003L10 4.00003V4V2.00003V1C10 0.447715 10.4477 0 11 0C11.5523 0 12 0.447715 12 1V2.00003H13.3594C14.4531 2.00003 15 2.51471 15 3.54412V14.4559C15 15.4853 14.4531 16 13.3594 16H2.64063C1.54688 16 1 15.4853 1 14.4559V3.54414C1 2.51473 1.54688 2.00003 2.64063 2.00003H3V3.00003L4 4.00003V4V2.00003V1ZM13 6.00003L3 6.00002V14H13V6.00003ZM4.00001 6.99997H6.00001V8.99997H4.00001V6.99997ZM9.00001 6.99997H7.00001V8.99997H9.00001V6.99997ZM10 6.99997H12V8.99997H10V6.99997ZM6.00001 9.99997H4.00001V12H6.00001V9.99997ZM7.00001 9.99997H9.00001V12H7.00001V9.99997ZM12 9.99997H10V12H12V9.99997Z" fill="#A1A7B3"/>
</svg>
