<svg width="24" height="24" viewBox="0 0 24 24" fill="none" xmlns="http://www.w3.org/2000/svg">
<path fill-rule="evenodd" clip-rule="evenodd" d="M0.047699 13.0773C0.14269 14.1449 0.377517 15.1724 0.73374 16.1412L16.1412 0.73374C15.1724 0.377517 14.1449 0.14269 13.0773 0.047699L0.047699 13.0773ZM10.8174 0.0575355C8.42362 0.291695 6.23608 1.22923 4.46419 2.66076L2.66076 4.46419C1.22923 6.23608 0.291695 8.42362 0.0575356 10.8174L10.8174 0.0575355ZM17.6918 1.43313L1.43313 17.6918C1.86267 18.4876 2.37949 19.2293 2.97075 19.9042L19.9042 2.97075C19.2293 2.37949 18.4876 1.86267 17.6918 1.43313ZM21.0292 4.09574L4.09574 21.0292C4.77061 21.6205 5.51234 22.1373 6.30811 22.5668L22.5668 6.30811C22.1373 5.51234 21.6205 4.77061 21.0292 4.09574ZM23.2662 7.85872L7.85872 23.2662C8.82752 23.6225 9.85498 23.8573 10.9227 23.9523L23.9523 10.9227C23.8573 9.85498 23.6225 8.82752 23.2662 7.85872ZM23.9425 13.1825L13.1825 23.9425C15.5761 23.7084 17.7635 22.771 19.5353 21.3396L21.3396 19.5353C22.771 17.7635 23.7084 15.5761 23.9425 13.1825ZM12.0342 24H11.9658C11.9772 24 11.9886 24 12 24C12.0114 24 12.0228 24 12.0342 24Z" fill="#BEF527"/>
</svg>
