<svg width="16" height="12" viewBox="0 0 16 12" fill="none" xmlns="http://www.w3.org/2000/svg">
<path d="M3.03695e-06 1.5C8.4012e-06 0.5 0.499997 -1.6451e-05 1.5 4.05946e-10C5.40524 6.42469e-05 7.09476 4.06138e-10 11 4.05946e-10C12 4.05897e-10 12.625 1 13 1.5C13.375 2 14.1078 2.91165 14.5 3.5C15.5 5 16 5.625 16 6C16 6.375 15.5 7 14.5 8.5C14.2226 8.91603 13.375 10 13 10.5C12.625 11 12 12 11 12C7.09476 12 5.40524 12 1.5 12C0.5 12 -1.47154e-05 11.5 1.26258e-07 10.5C4.64946e-05 7.37581 -1.3722e-05 4.62419 3.03695e-06 1.5Z" fill="#A1A7B3"/>
</svg>
